<svg width="11" height="14" viewBox="0 0 11 14" fill="none" xmlns="http://www.w3.org/2000/svg">
<mask id="path-1-outside-1_92_25" maskUnits="userSpaceOnUse" x="-2" y="-2" width="15" height="18" fill="black">
<rect fill="white" x="-2" y="-2" width="15" height="18"/>
<path d="M0.221 3.616C0.221 2.698 0.459 2.00667 0.935 1.542C1.411 1.07733 1.97767 0.844999 2.635 0.844999C3.30367 0.844999 4.21033 0.958333 5.355 1.185C6.49967 1.41167 7.361 1.53067 7.939 1.542C8.90233 1.36067 9.82033 1.13967 10.693 0.878999C10.7837 1.17367 10.829 1.542 10.829 1.984C10.829 2.902 10.5627 3.59333 10.03 4.058C9.50867 4.52267 8.84 4.755 8.024 4.755C7.82 4.755 7.548 4.74367 7.208 4.721C6.58467 7.99633 6.273 9.82667 6.273 10.212C6.273 11.3113 6.443 12.133 6.783 12.677C6.103 13.187 5.39467 13.442 4.658 13.442C3.92133 13.442 3.39433 13.2323 3.077 12.813C2.75967 12.3823 2.601 11.7477 2.601 10.909C2.601 10.059 2.92967 7.80367 3.587 4.143C2.30633 4.313 1.22967 4.50567 0.357 4.721C0.266333 4.43767 0.221 4.06933 0.221 3.616Z"/>
</mask>
<path d="M0.221 3.616C0.221 2.698 0.459 2.00667 0.935 1.542C1.411 1.07733 1.97767 0.844999 2.635 0.844999C3.30367 0.844999 4.21033 0.958333 5.355 1.185C6.49967 1.41167 7.361 1.53067 7.939 1.542C8.90233 1.36067 9.82033 1.13967 10.693 0.878999C10.7837 1.17367 10.829 1.542 10.829 1.984C10.829 2.902 10.5627 3.59333 10.03 4.058C9.50867 4.52267 8.84 4.755 8.024 4.755C7.82 4.755 7.548 4.74367 7.208 4.721C6.58467 7.99633 6.273 9.82667 6.273 10.212C6.273 11.3113 6.443 12.133 6.783 12.677C6.103 13.187 5.39467 13.442 4.658 13.442C3.92133 13.442 3.39433 13.2323 3.077 12.813C2.75967 12.3823 2.601 11.7477 2.601 10.909C2.601 10.059 2.92967 7.80367 3.587 4.143C2.30633 4.313 1.22967 4.50567 0.357 4.721C0.266333 4.43767 0.221 4.06933 0.221 3.616Z" fill="#003465"/>
<path d="M0.935 1.542L2.33207 2.97315L2.33207 2.97315L0.935 1.542ZM5.355 1.185L5.7435 -0.776906L5.7435 -0.776906L5.355 1.185ZM7.939 1.542L7.89979 3.54162L8.10614 3.54566L8.30897 3.50748L7.939 1.542ZM10.693 0.878999L12.6046 0.290827L12.0212 -1.60506L10.1206 -1.03734L10.693 0.878999ZM10.03 4.058L8.71526 2.55086L8.70722 2.55787L8.69926 2.56497L10.03 4.058ZM7.208 4.721L7.34104 2.72543L5.5743 2.60765L5.24326 4.34709L7.208 4.721ZM6.783 12.677L7.983 14.277L9.45261 13.1748L8.479 11.617L6.783 12.677ZM3.077 12.813L1.46689 13.9994L1.47447 14.0097L1.48219 14.0199L3.077 12.813ZM3.587 4.143L5.55552 4.49648L6.03974 1.79987L3.32382 2.16039L3.587 4.143ZM0.357 4.721L-1.54785 5.33055L-0.978274 7.11047L0.836136 6.66276L0.357 4.721ZM2.221 3.616C2.221 3.3244 2.25943 3.15051 2.29058 3.06003C2.30554 3.01655 2.31839 2.99343 2.32422 2.98399C2.32728 2.97903 2.32934 2.97634 2.33022 2.97523C2.33109 2.97414 2.33163 2.97358 2.33207 2.97315L-0.462073 0.110851C-1.45151 1.07673 -1.779 2.36892 -1.779 3.616H2.221ZM2.33207 2.97315C2.43949 2.86829 2.50671 2.845 2.635 2.845V-1.155C1.44863 -1.155 0.382515 -0.713628 -0.462074 0.110851L2.33207 2.97315ZM2.635 2.845C3.11162 2.845 3.87036 2.92985 4.9665 3.1469L5.7435 -0.776906C4.5503 -1.01318 3.49572 -1.155 2.635 -1.155V2.845ZM4.9665 3.1469C6.13501 3.37829 7.13832 3.52668 7.89979 3.54162L7.97821 -0.457616C7.58368 -0.465352 6.86433 -0.554959 5.7435 -0.776906L4.9665 3.1469ZM8.30897 3.50748C9.33547 3.31426 10.3214 3.07733 11.2654 2.79534L10.1206 -1.03734C9.31931 -0.797996 8.46919 -0.592926 7.56903 -0.423482L8.30897 3.50748ZM8.78144 1.46717C8.79413 1.5084 8.829 1.6627 8.829 1.984H12.829C12.829 1.42129 12.7732 0.838933 12.6046 0.290827L8.78144 1.46717ZM8.829 1.984C8.829 2.25388 8.78942 2.40332 8.76295 2.47202C8.74096 2.5291 8.72445 2.54285 8.71526 2.55086L11.3447 5.56514C12.4345 4.61445 12.829 3.29579 12.829 1.984H8.829ZM8.69926 2.56497C8.60485 2.64912 8.43694 2.755 8.024 2.755V6.755C9.24306 6.755 10.4125 6.39622 11.3607 5.55103L8.69926 2.56497ZM8.024 2.755C7.88389 2.755 7.6618 2.74681 7.34104 2.72543L7.07496 6.71657C7.4342 6.74052 7.75612 6.755 8.024 6.755V2.755ZM5.24326 4.34709C4.93075 5.9892 4.69419 7.28038 4.53513 8.21452C4.45578 8.68051 4.39375 9.06913 4.35094 9.37348C4.31479 9.63044 4.273 9.95351 4.273 10.212H8.273C8.273 10.2778 8.27017 10.2276 8.31194 9.93065C8.34705 9.68107 8.40189 9.33515 8.47837 8.88597C8.63097 7.98978 8.86192 6.72813 9.17274 5.09491L5.24326 4.34709ZM4.273 10.212C4.273 11.4501 4.45228 12.7214 5.087 13.737L8.479 11.617C8.43372 11.5446 8.273 11.1725 8.273 10.212H4.273ZM5.583 11.077C5.19376 11.3689 4.89741 11.442 4.658 11.442V15.442C5.89193 15.442 7.01225 15.0051 7.983 14.277L5.583 11.077ZM4.658 11.442C4.56757 11.442 4.50728 11.4355 4.47218 11.4297C4.43746 11.4239 4.43274 11.4197 4.44959 11.4264C4.46765 11.4336 4.50424 11.4509 4.54914 11.4843C4.59483 11.5184 4.6371 11.5602 4.67181 11.6061L1.48219 14.0199C2.31388 15.1189 3.56183 15.442 4.658 15.442V11.442ZM4.68711 11.6266C4.71352 11.6624 4.69006 11.648 4.66029 11.5289C4.62991 11.4074 4.601 11.2082 4.601 10.909H0.601C0.601 11.9487 0.788944 13.0793 1.46689 13.9994L4.68711 11.6266ZM4.601 10.909C4.601 10.2801 4.88442 8.23381 5.55552 4.49648L1.61848 3.78952C0.974917 7.37353 0.601 9.83787 0.601 10.909H4.601ZM3.32382 2.16039C1.99896 2.33626 0.845017 2.54059 -0.122136 2.77924L0.836136 6.66276C1.61432 6.47074 2.61371 6.28974 3.85018 6.12561L3.32382 2.16039ZM2.26185 4.11145C2.26256 4.11368 2.251 4.07712 2.24002 3.98794C2.22923 3.90023 2.221 3.77815 2.221 3.616H-1.779C-1.779 4.17974 -1.72544 4.77557 -1.54785 5.33055L2.26185 4.11145Z" fill="white" mask="url(#path-1-outside-1_92_25)"/>
</svg>
