<svg width="15" height="15" viewBox="0 0 15 15" fill="none" xmlns="http://www.w3.org/2000/svg">
<path d="M5.5 12.7409L1 14.0009L2.26 9.50087L10.5 1.30087C10.5931 1.20563 10.7044 1.12995 10.8271 1.07828C10.9499 1.02661 11.0818 1 11.215 1C11.3482 1 11.4801 1.02661 11.6029 1.07828C11.7256 1.12995 11.8369 1.20563 11.93 1.30087L13.7 3.08087C13.7937 3.17383 13.8681 3.28444 13.9189 3.40629C13.9697 3.52815 13.9958 3.65886 13.9958 3.79087C13.9958 3.92288 13.9697 4.05359 13.9189 4.17545C13.8681 4.29731 13.7937 4.40791 13.7 4.50087L5.5 12.7409Z" stroke="black" stroke-linecap="round" stroke-linejoin="round"/>
</svg>
