<svg width="14" height="15" viewBox="0 0 14 15" fill="none" xmlns="http://www.w3.org/2000/svg">
<path d="M5.29624 1H1.95472C1.42744 1 1 1.44771 1 2V5.5C1 6.05228 1.42744 6.5 1.95472 6.5H5.29624C5.82351 6.5 6.25095 6.05228 6.25095 5.5V2C6.25095 1.44771 5.82351 1 5.29624 1Z" stroke="white" stroke-linecap="round" stroke-linejoin="round"/>
<path d="M12.4566 8.5H9.11512C8.58785 8.5 8.1604 8.94772 8.1604 9.5V13C8.1604 13.5523 8.58785 14 9.11512 14H12.4566C12.9839 14 13.4114 13.5523 13.4114 13V9.5C13.4114 8.94772 12.9839 8.5 12.4566 8.5Z" stroke="white" stroke-linecap="round" stroke-linejoin="round"/>
<path d="M12.4566 1H9.11512C8.58785 1 8.1604 1.44772 8.1604 2V5.5C8.1604 6.0523 8.58785 6.5 9.11512 6.5H12.4566C12.9839 6.5 13.4114 6.0523 13.4114 5.5V2C13.4114 1.44772 12.9839 1 12.4566 1Z" stroke="white" stroke-linecap="round" stroke-linejoin="round"/>
<path d="M5.29624 8.5H1.95472C1.42744 8.5 1 8.94772 1 9.5V13C1 13.5523 1.42744 14 1.95472 14H5.29624C5.82351 14 6.25095 13.5523 6.25095 13V9.5C6.25095 8.94772 5.82351 8.5 5.29624 8.5Z" stroke="white" stroke-linecap="round" stroke-linejoin="round"/>
</svg>
